<svg width="600" height="164" viewBox="0 0 600 164" fill="none" xmlns="http://www.w3.org/2000/svg">
<path d="M182.93 108.512C159.847 163.622 115.527 165.852 101.941 163.359C93.8944 161.785 79.253 157.385 64.2159 144.002C80.4402 150.169 93.8944 149.713 101.281 148.795C110.251 147.614 131.051 140.452 145.824 118.671C156.904 110.274 167.21 97.9456 175.256 78.6574C177.103 74.1962 178.61 69.4113 179.27 65.3438C187.184 76.3656 190.448 90.4052 182.93 108.512Z" fill="white" fill-opacity="0.35"/>
<path d="M179.269 65.3458C178.611 69.4332 177.426 73.4474 175.451 78.0623C167.419 97.4448 156.753 110.235 145.824 118.673C153.461 107.334 159.386 92.0388 160.966 71.6015C161.756 61.5806 161.024 51.9406 157.864 45.348C166.423 50.0947 173.739 57.6983 179.269 65.3458Z" fill="white" fill-opacity="0.7"/>
<path d="M179.27 65.3441C173.699 57.6227 166.485 50.1389 157.864 45.3463C142.347 11.7982 87.1027 16.5355 72.9118 19.3312C49.9677 23.9907 32.0036 31.3606 20.0674 40.0139C21.9241 10.992 51.4995 -5.08037 107.202 1.44288C123.117 3.30667 186.697 19.5482 179.27 65.3441Z" fill="white" fill-opacity="0.35"/>
<path d="M64.216 144.004C50.2121 138.705 33.9408 128.902 17.6696 111.284C-6.47054 85.055 -6.0704 58.6935 20.0703 40.0153C19.5368 49.2882 21.4218 60.3363 26.7567 71.9936C26.7567 71.8611 26.7567 72.1261 26.7567 71.9936C26.3566 81.0015 29.0467 91.6619 34.1148 102.657C42.9172 121.865 53.8131 134.731 64.216 144.004Z" fill="white" fill-opacity="0.35"/>
<path d="M145.824 118.673C130.996 140.519 109.945 147.684 100.809 148.868C93.3951 149.79 80.6335 150.189 64.2163 144.003C53.8894 134.791 42.6872 121.231 33.8166 102.149C28.7855 91.0937 26.4024 80.9601 26.7996 72.011C48.3802 118.731 80.685 130.575 94.3219 133.076C103.192 134.655 125.17 134.334 145.824 118.673Z" fill="white" fill-opacity="0.7"/>
<path d="M157.864 45.3469C140.473 36.6812 122.073 33.4901 114.385 32.6817C58.0503 25.9449 27.9497 41.9651 26.7567 72.0108C26.6886 71.8599 26.759 71.9536 26.7567 72.0108C21.4546 60.289 19.5373 49.5803 20.0675 40.0141C31.9971 31.2564 49.437 23.9107 72.3685 19.195C86.8166 16.3656 142.356 11.3939 157.864 45.3469Z" fill="white" fill-opacity="0.7"/>
<path d="M161.124 71.0485C159.528 91.7261 153.541 107.201 145.824 118.674C125.069 134.549 102.692 135.572 93.778 133.971C80.2075 131.436 48.4432 119.371 26.757 72.0124C27.9544 42.2635 57.0837 24.7575 113.761 31.4277C121.477 32.3615 141.101 36.1439 157.865 45.3487C161.058 52.1523 161.923 60.9099 161.124 71.0485Z" fill="white"/>
<path d="M216 17.0013H224.349L239.878 62.6292L255.241 17.0013H263.59L243.552 74.2377H236.038L216 17.0013Z" fill="white"/>
<path d="M266.872 25.3591C266.872 22.4066 268.936 20.2742 271.795 20.2742C274.654 20.2742 276.718 22.5706 276.718 25.3591C276.718 28.1476 274.654 30.444 271.795 30.444C268.936 30.444 266.872 28.1476 266.872 25.3591ZM268.46 36.0211H275.448V74.24H268.46V36.0211Z" fill="white"/>
<path d="M288.365 35.6487H295.37V44.4256C296.962 37.8015 301.738 34.9863 306.195 34.9863C307.469 34.9863 308.743 35.1519 309.539 35.3175V42.1072C308.265 41.776 307.469 41.776 306.036 41.776C298.713 41.776 295.21 48.7313 295.21 57.3427V74.2341H288.205V35.6487H288.365Z" fill="white"/>
<path d="M312.821 54.6892C312.821 43.6363 319.981 34.9863 331.699 34.9863C337.721 34.9863 342.603 37.8696 345.044 42.515V35.9474H352.205V73.2708H345.044V66.7032C342.603 71.3486 337.233 74.2319 331.536 74.2319C319.493 74.3921 312.821 65.7421 312.821 54.6892ZM345.37 54.6892C345.37 47.4808 340.813 41.2336 332.513 41.2336C324.701 41.2336 319.819 46.8401 319.819 54.6892C319.819 62.3781 324.701 67.9847 332.513 67.9847C340.813 67.9847 345.37 61.8976 345.37 54.6892Z" fill="white"/>
<path d="M363.693 17H371.898V74.2364H363.693V17Z" fill="white"/>
<path d="M378.462 17H386.436L401.246 61.983L415.079 17H420.776L434.446 61.983L449.256 17H457.231L437.376 74.2364H431.842L417.846 30.0596L403.85 74.2364H398.317L378.462 17Z" fill="white"/>
<path d="M503.351 35.6487H510.895V44.4256C512.609 37.8015 517.753 34.9863 522.553 34.9863C523.925 34.9863 525.297 35.1519 526.154 35.3175V42.1072C524.782 41.776 523.925 41.776 522.382 41.776C514.495 41.776 510.723 48.7313 510.723 57.3427V74.2341H503.179V35.6487H503.351Z" fill="white"/>
<path d="M549 54.7277L567.18 74.2364H557.848L541.438 56.5012V74.2364H534.359V17H541.438V53.5991L558.009 36.5088H567.18L549 54.7277Z" fill="white"/>
<path d="M568.82 62.0593H576.118C576.118 65.7438 579.601 68.6273 585.405 68.6273C589.717 68.6273 592.537 66.5448 592.537 63.1807C592.537 61.0981 591.542 59.0156 588.722 58.3748L578.44 55.8117C572.635 54.2097 570.147 50.5252 570.147 45.7194C570.147 39.632 575.952 34.9863 584.742 34.9863C594.361 34.9863 599.668 39.632 599.668 46.2H592.371C592.371 42.6757 589.386 40.4329 584.41 40.4329C580.43 40.4329 577.445 42.1951 577.445 45.399C577.445 47.6417 578.606 49.4039 581.757 50.2048L591.376 52.768C596.849 54.2097 600 58.0544 600 62.5399C600 69.5885 594.527 74.2341 585.074 74.2341C574.957 74.2341 568.82 68.6273 568.82 62.0593Z" fill="white"/>
<path d="M475.282 34.9863C464.395 34.9863 455.59 43.7612 455.59 54.6102C455.59 65.4592 464.395 74.2341 475.282 74.2341C486.169 74.2341 494.975 65.4592 494.975 54.6102C494.975 43.7612 486.169 34.9863 475.282 34.9863ZM475.282 67.6928C468.078 67.6928 462.154 61.7897 462.154 54.6102C462.154 47.4307 468.078 41.5276 475.282 41.5276C482.487 41.5276 488.411 47.4307 488.411 54.6102C488.411 61.7897 482.647 67.6928 475.282 67.6928Z" fill="white"/>
<path d="M221.51 115V94.439H218.61V115H221.51ZM229.754 106.938C229.754 104.821 230.856 103.11 233.002 103.11C235.438 103.11 236.25 104.676 236.25 106.619V115H238.976V106.155C238.976 103.052 237.323 100.645 233.988 100.645C232.364 100.645 230.711 101.312 229.696 103.052V101.051H227.028V115H229.754V106.938ZM249.75 96.469C250.446 96.469 250.794 96.585 250.939 96.643V94.207C250.823 94.12 250.243 93.917 249.315 93.917C246.792 93.917 244.733 95.599 244.733 98.702V101.051H242.152V103.516H244.733V115H247.546V103.516H253.984V115H256.71V94.004H253.984V101.051H247.546V98.847C247.546 96.933 248.793 96.469 249.75 96.469ZM271.11 113.318C271.11 113.898 271.168 114.681 271.226 115H273.836C273.778 114.507 273.691 113.521 273.691 112.419V101.051H270.965V109.461C270.965 111.578 269.863 113.028 267.659 113.028C265.368 113.028 264.498 111.346 264.498 109.432V101.051H261.772V109.838C261.772 112.999 263.744 115.435 266.992 115.435C268.616 115.435 270.356 114.768 271.11 113.318ZM280.551 106.59C280.667 104.792 282.059 103.023 284.35 103.023C286.815 103.023 288.12 104.589 288.178 106.59H280.551ZM288.584 110.215C288.062 111.781 286.931 113.028 284.669 113.028C282.32 113.028 280.522 111.288 280.464 108.794H290.962C290.991 108.62 291.02 108.272 291.02 107.924C291.02 103.574 288.613 100.616 284.321 100.616C280.812 100.616 277.651 103.603 277.651 107.982C277.651 112.709 280.928 115.435 284.669 115.435C287.917 115.435 290.15 113.492 290.933 111.027L288.584 110.215ZM297.805 106.938C297.805 104.821 298.907 103.11 301.053 103.11C303.489 103.11 304.301 104.676 304.301 106.619V115H307.027V106.155C307.027 103.052 305.374 100.645 302.039 100.645C300.415 100.645 298.762 101.312 297.747 103.052V101.051H295.079V115H297.805V106.938ZM317.802 103.139C320.18 103.139 321.195 104.734 321.543 106.097L324.008 105.053C323.428 102.936 321.514 100.616 317.802 100.616C313.829 100.616 310.784 103.661 310.784 108.011C310.784 112.245 313.771 115.435 317.831 115.435C321.456 115.435 323.457 113.086 324.124 111.085L321.717 110.041C321.398 111.143 320.441 112.912 317.831 112.912C315.569 112.912 313.568 111.201 313.568 108.011C313.568 104.763 315.598 103.139 317.802 103.139ZM329.529 106.59C329.645 104.792 331.037 103.023 333.328 103.023C335.793 103.023 337.098 104.589 337.156 106.59H329.529ZM337.562 110.215C337.04 111.781 335.909 113.028 333.647 113.028C331.298 113.028 329.5 111.288 329.442 108.794H339.94C339.969 108.62 339.998 108.272 339.998 107.924C339.998 103.574 337.591 100.616 333.299 100.616C329.79 100.616 326.629 103.603 326.629 107.982C326.629 112.709 329.906 115.435 333.647 115.435C336.895 115.435 339.128 113.492 339.911 111.027L337.562 110.215ZM351.801 100.906C351.656 100.877 351.279 100.819 350.902 100.819C349.481 100.819 347.741 101.341 346.726 103.487V101.051H344.058V115H346.784V108.011C346.784 104.937 348.321 103.719 350.612 103.719C350.989 103.719 351.395 103.748 351.801 103.806V100.906ZM385.62 115V94.439H381.821L374.513 111.172L367.263 94.439H363.406V115H366.219V98.992L373.179 115H375.789L382.807 98.992V115H385.62ZM390.127 111.259C390.127 113.463 391.954 115.435 394.796 115.435C397.29 115.435 398.682 114.101 399.291 113.115C399.291 114.13 399.378 114.652 399.436 115H402.104C402.046 114.652 401.93 113.927 401.93 112.709V105.72C401.93 102.994 400.306 100.616 396.13 100.616C393.114 100.616 390.707 102.472 390.417 105.14L393.027 105.749C393.201 104.125 394.274 102.936 396.188 102.936C398.305 102.936 399.204 104.067 399.204 105.43C399.204 105.923 398.972 106.358 398.131 106.474L394.361 107.025C391.954 107.373 390.127 108.765 390.127 111.259ZM395.173 113.144C393.781 113.144 392.911 112.158 392.911 111.114C392.911 109.867 393.781 109.2 394.941 109.026L399.204 108.388V109.026C399.204 112.071 397.406 113.144 395.173 113.144ZM414.5 100.906C414.355 100.877 413.978 100.819 413.601 100.819C412.18 100.819 410.44 101.341 409.425 103.487V101.051H406.757V115H409.483V108.011C409.483 104.937 411.02 103.719 413.311 103.719C413.688 103.719 414.094 103.748 414.5 103.806V100.906ZM430.484 101.051H426.714L420.682 107.228V94.004H417.985V115H420.682V110.795L422.625 108.852L427.178 115H430.6L424.539 106.938L430.484 101.051ZM434.834 106.59C434.95 104.792 436.342 103.023 438.633 103.023C441.098 103.023 442.403 104.589 442.461 106.59H434.834ZM442.867 110.215C442.345 111.781 441.214 113.028 438.952 113.028C436.603 113.028 434.805 111.288 434.747 108.794H445.245C445.274 108.62 445.303 108.272 445.303 107.924C445.303 103.574 442.896 100.616 438.604 100.616C435.095 100.616 431.934 103.603 431.934 107.982C431.934 112.709 435.211 115.435 438.952 115.435C442.2 115.435 444.433 113.492 445.216 111.027L442.867 110.215ZM453.017 96.643H450.523V98.905C450.523 100.123 449.885 101.051 448.377 101.051H447.623V103.516H450.291V111.172C450.291 113.695 451.799 115.145 454.177 115.145C455.105 115.145 455.801 114.971 456.033 114.884V112.564C455.801 112.622 455.308 112.68 454.96 112.68C453.539 112.68 453.017 112.042 453.017 110.766V103.516H456.033V101.051H453.017V96.643ZM462.948 115V101.051H460.251V115H462.948ZM459.642 95.773C459.642 96.846 460.512 97.716 461.585 97.716C462.687 97.716 463.557 96.846 463.557 95.773C463.557 94.671 462.687 93.801 461.585 93.801C460.512 93.801 459.642 94.671 459.642 95.773ZM470.892 106.938C470.892 104.821 471.994 103.11 474.14 103.11C476.576 103.11 477.388 104.676 477.388 106.619V115H480.114V106.155C480.114 103.052 478.461 100.645 475.126 100.645C473.502 100.645 471.849 101.312 470.834 103.052V101.051H468.166V115H470.892V106.938ZM484.016 115.754C484.364 118.741 486.974 120.945 490.454 120.945C495.703 120.945 497.443 117.494 497.443 113.956V101.051H494.746V102.994C494.05 101.602 492.6 100.79 490.454 100.79C486.626 100.79 484.045 103.806 484.045 107.576C484.045 111.52 486.742 114.333 490.454 114.333C492.542 114.333 494.05 113.318 494.717 112.042V114.043C494.717 117.059 493.383 118.567 490.454 118.567C488.337 118.567 486.858 117.088 486.655 115.145L484.016 115.754ZM490.86 112.042C488.395 112.042 486.829 110.302 486.829 107.576C486.829 104.879 488.453 103.11 490.86 103.11C493.209 103.11 494.833 104.879 494.833 107.576C494.833 110.273 493.209 112.042 490.86 112.042ZM221.452 141.038V133.991H225.57C228.035 133.991 229.543 135.383 229.543 137.558C229.543 139.675 228.035 141.038 225.57 141.038H221.452ZM226.092 143.59C229.891 143.59 232.443 141.009 232.443 137.529C232.443 134.078 229.891 131.439 226.092 131.439H218.61V152H221.452V143.59H226.092ZM238.647 152V131.004H235.921V152H238.647ZM242.994 148.259C242.994 150.463 244.821 152.435 247.663 152.435C250.157 152.435 251.549 151.101 252.158 150.115C252.158 151.13 252.245 151.652 252.303 152H254.971C254.913 151.652 254.797 150.927 254.797 149.709V142.72C254.797 139.994 253.173 137.616 248.997 137.616C245.981 137.616 243.574 139.472 243.284 142.14L245.894 142.749C246.068 141.125 247.141 139.936 249.055 139.936C251.172 139.936 252.071 141.067 252.071 142.43C252.071 142.923 251.839 143.358 250.998 143.474L247.228 144.025C244.821 144.373 242.994 145.765 242.994 148.259ZM248.04 150.144C246.648 150.144 245.778 149.158 245.778 148.114C245.778 146.867 246.648 146.2 247.808 146.026L252.071 145.388V146.026C252.071 149.071 250.273 150.144 248.04 150.144ZM263.277 133.643H260.783V135.905C260.783 137.123 260.145 138.051 258.637 138.051H257.883V140.516H260.551V148.172C260.551 150.695 262.059 152.145 264.437 152.145C265.365 152.145 266.061 151.971 266.293 151.884V149.564C266.061 149.622 265.568 149.68 265.22 149.68C263.799 149.68 263.277 149.042 263.277 147.766V140.516H266.293V138.051H263.277V133.643ZM277.53 140.516V138.051H274.166V135.847C274.166 133.933 275.413 133.469 276.37 133.469C277.066 133.469 277.414 133.585 277.559 133.643V131.207C277.443 131.12 276.863 130.917 275.935 130.917C273.412 130.917 271.353 132.599 271.353 135.702V138.051H268.772V140.516H271.353V152H274.166V140.516H277.53ZM286.44 149.999C284.12 149.999 282.09 148.259 282.09 145.011C282.09 141.792 284.12 140.052 286.44 140.052C288.76 140.052 290.79 141.792 290.79 145.011C290.79 148.259 288.76 149.999 286.44 149.999ZM286.44 137.616C282.264 137.616 279.306 140.777 279.306 145.011C279.306 149.274 282.264 152.435 286.44 152.435C290.616 152.435 293.574 149.274 293.574 145.011C293.574 140.777 290.616 137.616 286.44 137.616ZM305.385 137.906C305.24 137.877 304.863 137.819 304.486 137.819C303.065 137.819 301.325 138.341 300.31 140.487V138.051H297.642V152H300.368V145.011C300.368 141.937 301.905 140.719 304.196 140.719C304.573 140.719 304.979 140.748 305.385 140.806V137.906ZM311.567 152V143.59C311.567 141.502 312.872 140.052 314.815 140.052C316.903 140.052 317.773 141.444 317.773 143.242V152H320.499V143.561C320.499 141.56 321.804 140.052 323.718 140.052C325.777 140.052 326.676 141.415 326.676 143.242V152H329.373V142.952C329.373 139.298 326.995 137.645 324.559 137.645C322.79 137.645 320.992 138.283 319.89 140.284C319.136 138.486 317.454 137.645 315.714 137.645C314.09 137.645 312.35 138.37 311.48 139.907V138.051H308.87V152H311.567Z" fill="white"/>
</svg>
